<svg xmlns="http://www.w3.org/2000/svg" viewBox="0 0 440 680" fill="none" aria-hidden="true">
  <defs>
    <linearGradient id="silver" x1="0%" y1="0%" x2="100%" y2="100%">
      <stop offset="0%" stop-color="#e8ecef"/>
      <stop offset="35%" stop-color="#a8b2bc"/>
      <stop offset="55%" stop-color="#d5dce2"/>
      <stop offset="100%" stop-color="#7a8490"/>
    </linearGradient>
    <linearGradient id="silverDim" x1="100%" y1="0%" x2="0%" y2="100%">
      <stop offset="0%" stop-color="#c5cdd4"/>
      <stop offset="100%" stop-color="#8a939c"/>
    </linearGradient>
  </defs>
  <!-- Outer edge -->
  <rect x="4" y="4" width="432" height="672" rx="2" stroke="url(#silver)" stroke-width="3" fill="none"/>
  <rect x="14" y="14" width="412" height="652" rx="1" stroke="url(#silverDim)" stroke-width="1.5" fill="none" opacity="0.85"/>
  <!-- Top chain ornament -->
  <path stroke="url(#silver)" stroke-width="2" fill="none" opacity="0.9" d="M40 28h360M52 22c12 0 12 8 0 8s-12-8 0-8 12 0 12 8 0 8-12 0-12-8 0-8 12 0 12 8 0 8M88 22c12 0 12 8 0 8s-12-8 0-8 12 0 12 8 0 8-12 0-12-8 0-8 12 0 12 8 0 8M124 22c12 0 12 8 0 8s-12-8 0-8 12 0 12 8 0 8-12 0-12-8 0-8 12 0 12 8 0 8M160 22c12 0 12 8 0 8s-12-8 0-8 12 0 12 8 0 8-12 0-12-8 0-8 12 0 12 8 0 8M196 22c12 0 12 8 0 8s-12-8 0-8 12 0 12 8 0 8-12 0-12-8 0-8 12 0 12 8 0 8M232 22c12 0 12 8 0 8s-12-8 0-8 12 0 12 8 0 8-12 0-12-8 0-8 12 0 12 8 0 8M268 22c12 0 12 8 0 8s-12-8 0-8 12 0 12 8 0 8-12 0-12-8 0-8 12 0 12 8 0 8M304 22c12 0 12 8 0 8s-12-8 0-8 12 0 12 8 0 8-12 0-12-8 0-8 12 0 12 8 0 8M340 22c12 0 12 8 0 8s-12-8 0-8 12 0 12 8 0 8-12 0-12-8 0-8 12 0 12 8 0 8M376 22c12 0 12 8 0 8s-12-8 0-8 12 0 12 8 0 8-12 0-12-8 0-8 12 0 12 8 0 8"/>
  <!-- Bottom chain -->
  <path stroke="url(#silver)" stroke-width="2" fill="none" opacity="0.9" d="M40 652h360M52 646c12 0 12 8 0 8s-12-8 0-8 12 0 12 8 0 8-12 0-12-8 0-8 12 0 12 8 0 8M88 646c12 0 12 8 0 8s-12-8 0-8 12 0 12 8 0 8-12 0-12-8 0-8 12 0 12 8 0 8M124 646c12 0 12 8 0 8s-12-8 0-8 12 0 12 8 0 8-12 0-12-8 0-8 12 0 12 8 0 8M160 646c12 0 12 8 0 8s-12-8 0-8 12 0 12 8 0 8-12 0-12-8 0-8 12 0 12 8 0 8M196 646c12 0 12 8 0 8s-12-8 0-8 12 0 12 8 0 8-12 0-12-8 0-8 12 0 12 8 0 8M232 646c12 0 12 8 0 8s-12-8 0-8 12 0 12 8 0 8-12 0-12-8 0-8 12 0 12 8 0 8M268 646c12 0 12 8 0 8s-12-8 0-8 12 0 12 8 0 8-12 0-12-8 0-8 12 0 12 8 0 8M304 646c12 0 12 8 0 8s-12-8 0-8 12 0 12 8 0 8-12 0-12-8 0-8 12 0 12 8 0 8M340 646c12 0 12 8 0 8s-12-8 0-8 12 0 12 8 0 8-12 0-12-8 0-8 12 0 12 8 0 8M376 646c12 0 12 8 0 8s-12-8 0-8 12 0 12 8 0 8-12 0-12-8 0-8 12 0 12 8 0 8"/>
  <!-- Left flourish -->
  <path stroke="url(#silver)" stroke-width="2" fill="none" d="M28 120v440M22 132c0 10 8 10 8 0s8-10 0-10 0-10-8 0-10-8 10 0 10 0 10 8 0 10M22 168c0 10 8 10 8 0s8-10 0-10 0-10-8 0-10-8 10 0 10 0 10 8 0 10M22 204c0 10 8 10 8 0s8-10 0-10 0-10-8 0-10-8 10 0 10 0 10 8 0 10M22 340c0 10 8 10 8 0s8-10 0-10 0-10-8 0-10-8 10 0 10 0 10 8 0 10M22 376c0 10 8 10 8 0s8-10 0-10 0-10-8 0-10-8 10 0 10 0 10 8 0 10M22 412c0 10 8 10 8 0s8-10 0-10 0-10-8 0-10-8 10 0 10 0 10 8 0 10M22 448c0 10 8 10 8 0s8-10 0-10 0-10-8 0-10-8 10 0 10 0 10 8 0 10"/>
  <path stroke="url(#silverDim)" stroke-width="1.5" fill="none" opacity="0.7" d="M34 300c-8 14-20 22-20 22s12-8 20-22 8-22 0-30 0 30 8 22z"/>
  <!-- Right flourish -->
  <path stroke="url(#silver)" stroke-width="2" fill="none" d="M412 120v440M418 132c0 10-8 10-8 0s-8-10 0-10 0-10 8 0 10 8-10 0-10 0-10-8 0-10M418 168c0 10-8 10-8 0s-8-10 0-10 0-10 8 0 10 8-10 0-10 0-10-8 0-10M418 204c0 10-8 10-8 0s-8-10 0-10 0-10 8 0 10 8-10 0-10 0-10-8 0-10M418 340c0 10-8 10-8 0s-8-10 0-10 0-10 8 0 10 8-10 0-10 0-10-8 0-10M418 376c0 10-8 10-8 0s-8-10 0-10 0-10 8 0 10 8-10 0-10 0-10-8 0-10M418 412c0 10-8 10-8 0s-8-10 0-10 0-10 8 0 10 8-10 0-10 0-10-8 0-10M418 448c0 10-8 10-8 0s-8-10 0-10 0-10 8 0 10 8-10 0-10 0-10-8 0-10"/>
  <path stroke="url(#silverDim)" stroke-width="1.5" fill="none" opacity="0.7" d="M406 300c8 14 20 22 20 22s-12-8-20-22-8-22 0-30 0 30-8 22z"/>
  <!-- Corner gems -->
  <path fill="url(#silver)" d="M408 24l8 8-8 8-8-8 8-8z" opacity="0.85"/>
  <circle cx="408" cy="32" r="3" fill="#e8ecef" opacity="0.5"/>
</svg>
